<?xml version="1.0" encoding="UTF-8"?>
<svg id="europe-map" xmlns="http://www.w3.org/2000/svg" xmlns:xlink="http://www.w3.org/1999/xlink" version="1.1" viewBox="0 0 822 900">
  <defs>
    <style>
      .cls-1 {
        clip-path: url(#clippath);
      }

      .cls-2 {
        fill: none;
        stroke-width: 0px;
      }

      .cls-3 {
        stroke: gray;
        stroke-width: 4.4px;
      }

      .cls-3, .cls-4 {
        fill: #fff;
      }

      .cls-3, .cls-5 {
        stroke-miterlimit: 4.4;
      }

      .cls-6, .cls-4 {
        stroke: #9b9b9b;
      }

      .cls-6, .cls-5 {
        fill: #dedede;
      }

      .cls-4 {
        stroke-miterlimit: 4;
        stroke-width: 1px;
      }

      .cls-5 {
        stroke: #666;
        stroke-width: 1.1px;
      }
    </style>
    <clipPath id="clippath">
      <rect class="cls-2" x=".4" y="0" width="821.2" height="900"/>
    </clipPath>
  </defs>
  <g class="cls-1">
    <g>
      <path id="country" class="cls-5" d="M552.9-40.4l-.2-.2h-.3c0,0-29.4,6-29.4,6h-.4c0,0,0,.5,0,.5l-1.7,33.4-27,10.7-31.7-24.3-.3-.2-.3.2-19,11.8h0s0,0,0,0l-61.3,61.6h0c0,.1,0,.2,0,.2l-30.1,103.5-23.9,9.2h-.4c0,.1,0,.5,0,.5l3.4,106.1-12.8,15.1h0c0,0,0,.2,0,.2l-9.1,22.7-8.9-13.5-.4-.6-.5.6-34.4,42.8-38.1-.8-7.7-82.9,18.9-43.6,77.6-51.4h.2c0-.1,0-.3,0-.3l49.2-145.8,151.7-90h59.8c0-.1,10.1,9.5,10.1,9.5l-21.8,27.9-10.7-9Z"/>
      <path id="norway" class="cls-5" d="M552.9-40.7l-.9-.8v.8l-29,5.9h-.4c0,0,0,.5,0,.5l-1.7,33.4-27,10.7-31.7-24.3-.3-.2-.3.2-19,11.8h0s0,0,0,0l-61.3,61.6h0c0,.1,0,.2,0,.2l-30.2,103.5-23.9,9.2h-.4c0,.1,0,.5,0,.5l3.4,106.1-12.8,15h0c0,0,0,.2,0,.2l-9.1,22.7-8.9-13.5-.4-.6-.5.6-34.4,42.8-38.1-.8-7.7-82.9,18.9-43.6,77.6-51.4h.2c0-.1,0-.3,0-.3l49.2-145.8,120.6-71.7c29.5,1.5,59.4,3.4,89.1,6.1l-10,12.9-10.7-9Z"/>
      <path id="russia" class="cls-5" d="M791.9,88.3l-20.1-18.3,13.8-31.8v-.3c.1,0,0-.2,0-.2l-13.2-23.6,17.3-10,22.2,20-6.4,33.3v.6c-.1,0,.5,0,.5,0l14.9,2.2.4,646.6h-.5s-12.8-20.7-12.8-20.7v-.2c-.1,0-.4,0-.4,0l-81.1-12.7-12.9-10.8h0s0,0,0,0l-21.7-10.4-11.2-12.3,27.6-35.5.9-1.1-1.4.2-9.8,1.7,5.8-23.4,19.3-9h.3c0-.1,0-.5,0-.5l2.3-30.4v-.3s-.3-.2-.3-.2l-85.4-54.9h-.1c0,0-.1,0-.1,0l-31.6-3.1-14.8-81.7v-.4c0,0-.5,0-.5,0l-35.8-5.7-4.6-36.4v-54.4l14.8-1.3h.5s0-.6,0-.6l-.9-26.8v-.5s-.5,0-.5,0l-9-1.5,40.7-49.7.2-.2v-.2s-16.7-100.4-16.7-100.4l8.3-70.1v-.3s-.2-.2-.2-.2l-28-28.9,13-42.9v-.3c0,0-.1-.2-.1-.2l-6.4-6.9,13.6-17.2c9,.8,18.1,1.7,27,2.9l137.5,89,2.6,8.6-52.4,47.2-65.6-32h-.2c0-.1-.2,0-.2,0l-6.5,3.2-.5.2.2.5,39.5,91.7v.2c0,0,.3,0,.3,0l12.6,4.1h.2c0,0,.2,0,.2,0l17.6-7.7,22.7-6.8h0s0,0,0,0l9.8-6.4h.1c0,0,0-.2,0-.2l12.5-28.1,11.5-12.1,18-11.3,23.2-10,.8-.3-.6-.6ZM448.6,424.8h.3v-.5h0s.5-4.5.5-4.5l17.2,5.8,2.2,14.6-2.3,1.1-33.9-4.9-1.6-4.1,17.5-7.4Z"/>
      <path id="sweden" class="cls-5" d="M335.5,410.4l-6.5-43.9h0c0,0,0-.1,0-.1l-17.1-41.7,12.8-29.8,12.7-13,.2-.2v-.2s-3.1-105.6-3.1-105.6l23.8-7.6h.3c0,0,0-.4,0-.4l29.7-106.1L449.3.9l31.8,26,10.1,52.6-2.8,34.3-15.8-5.2-.5-.2-.2.4-17.8,38.6-53.4,52.2-.3.3.2.4c12.4,27.6,15.9,52.3,19.4,77.4,1.1,7.7,2.2,15.4,3.5,23.3l-33.3,19.2h-.2c0,.1,0,.4,0,.4l-17.7,83.5-36.7,6.3Z"/>
      <path id="finland" class="cls-5" d="M499.4,79.1h0c0,0,0-.2,0-.2l-11.7-55.2v-.2s-.2-.1-.2-.1l-31.3-26.1,5.8-3.9,28.9,24,.2.2h.3c0-.1,36.3-13.8,36.3-13.8h.3c0-.1,0-.5,0-.5l1.7-33.3,22.1-3.9,15.3,15.6-13.4,43.1v.3c0,0,.1.2.1.2l27.9,28.4-8.2,68.9h0c0,0,0,.2,0,.2l16.4,98.6-40,50.4-7.2-2.2h-.1s-.1,0-.1,0l-72.6,16.5-17.9-50.7,19.8-40.3,52-61.7.4-.5-.6-.3-28.1-15.7,3.8-37.7Z"/>
      <path id="estonia-latvia" class="cls-5" d="M497.6,343.2l-4.4-31.2,51.8-6.9.3,50.1-47.7-12ZM491.8,374.1l5-24.2,48.3,12.2,4.3,33-17.3,9.2-19.1-17h-.2c0-.1-.2-.1-.2-.1l-66.5-.5-2.1-25.1,24.9-9.5,22.1,22.3.7.7.2-1Z"/>
      <path id="lithuania" class="cls-5" d="M472.6,420.8v-.3c0,0-.4-.1-.4-.1l-25.1-8.4-1-18.3h63.3c0-.1,18.5,16,18.5,16v2.3l-18.7,24.7-20.5,7.8-12.4-1.3-3.8-22.3Z"/>
      <path id="belarus" class="cls-5" d="M554.1,505.1h0s-12.3-1.2-12.3-1.2l-39.4-13.2h-.3c0-.1-.2.1-.2.1l-11,11.9-4.3-10.4,4.4-41.7,22-8.4h.2c0,0,0-.2,0-.2l24.1-32.1,14.9-8.9,35.1,6.3,13.6,78.9-12.7,21.6-22.4-1.4-11.8-1.4Z"/>
      <path id="ukraine" class="cls-5" d="M578.3,631.2l-18.6-.9,26-18.9.4-.3-.3-.4-29.8-41.4v-.2c-.1,0-.3,0-.3,0l-28.7-5.6h-.6c0-.1,0,.5,0,.5l-2,12.8-23.6,1.3h0s0,0,0,0l-16.8,3-13-3.2.3-8.6,3.3-5.5v-.2c.1,0,0-.2,0-.2l-2.3-6.3,25.5-32.8.2-.2v-.3c-.1,0-5.2-13-5.2-13l11-12.9,39.7,13.1h0s0,0,0,0l47.7,4.3h.4s.2-.3.2-.3l14.6-25.1,29.2,3.3,81.2,51.3-.3,21.9-18.3,9.4h-.2c0,.1,0,.3,0,.3l-9.4,33.5-29.4,10.1-26.5-7.9h-.3c0,0-.2,0-.2,0l-3.3,2.5-44.1,2.6h-.3s-.1.3-.1.3l-6,14.2Z"/>
      <path id="fixme-beneath-ukraine" class="cls-5" d="M634.8,641.1v-.4c0,0-.3-.2-.3-.2l-15.4-7.5,18.3-12.6,20.5,4.5,6.4,11.6-12.1,10.2-20.3,6.6,2.8-12.3Z"/>
      <path id="moldova" class="cls-5" d="M576.8,610.1l-23.1,16.5-16-50.1v-.3c0,0-.4,0-.4,0l-6.8-1.9.6-3.5,21.1,4.6,24.6,34.8Z"/>
      <path id="romania" class="cls-5" d="M470.9,589.7h.1c0-.1,0-.3,0-.3l-.2-5.5,12.6,3.4h.1s.1,0,.1,0l20.1-2.9,29.4-2.1,17.3,54.1v.4c.1,0,.5,0,.5,0l24.1.5-15.5,31.2-19.1-16.6-.3-.2-.3.2-23,11.5-42.1.2v-12.3c-.1,0-29.2-30.9-29.2-30.9l2.7-1h2.9l.2-.2,19.6-29.3Z"/>
      <path id="bulgaria" class="cls-5" d="M476.2,706l-1.7-36,42.4-.2h.2c0,0,21.5-10.7,21.5-10.7l17.4,15.1-7.8,16.6v.3c-.1,0,0,.3,0,.3l4.3,7-17.9,3.7h0s0,0,0,0l-3.2,1.5-6-2.2h0s0,0,0,0l-4.5-1.4h0s0,0,0,0l-5.8-.2h-.5s0,.5,0,.5l-2.2,13.1-17-4.6h0s0,0,0,0l-18.7-2.7Z"/>
      <path id="cyprus" class="cls-5" d="M640.3,819.2h0s0,0,0,0l13.9-8.2,6,3.8-21,21.2-22.7.5-2.9-12,26.4-5.3Z"/>
      <path id="georgia" class="cls-5" d="M743.1,690.9v-.3s-.2-.2-.2-.2l-10-10,69.8,10.9,12.4,17.9-17.5,7.1-2.3-2.9-.2-.2h-.3s-17.4,2.4-17.4,2.4h-.4c0,0,0,.5,0,.5l-1.9,14.3-33.6-26.6,1.7-12.8Z"/>
      <path id="armenia" class="cls-5" d="M816,751l-1.7,3.1-12.5-11.2h-.2c0-.1-.2-.1-.2-.1l-11.6.5.7-2.4v-.4c.1,0-.2-.2-.2-.2l-8.6-6.6.9-12.2,10.1-2,23.4,31.6Z"/>
      <path id="greece" class="cls-5" d="M516.2,721.1l.7.5v-.9c.1,0,2.3-14.7,2.3-14.7h1l3.1.9-2.8,18.8-14.1-1.9h0s0,0,0,0l-14.5.8h-1.2c0,0,.8.9.8.9l6,6.3-6.1,6.2-10.6-6.9-.3-3.1v-.7c0,0-.8.3-.8.3l-4.7,1.9h-.3c0,0,0,.4,0,.4-1.3,4.6-1.8,8.2-1.5,11.4.3,3.1,1.3,5.7,2.8,8.2l4.5,7.7h0c0,0,0,.2,0,.2l18.6,14.7c0,1.7.1,4.1.3,6.4,0,1.2.2,2.5.2,3.6,0,1.7,0,3.2,0,4.1,0,.5-.1.7-.2.9l-10.3-4.7-.6-.3-.2.6c-.3.9-.4,2.1-.6,3.4,0,.4,0,.9-.1,1.3,0,.8-.2,1.7-.2,2.4,0,.6-.2,1.1-.3,1.5-.1.4-.2.8-.3,1,0,.1-.1.2-.1.2,0,0,0,0,0,0,0,0-.1,0-.4-.2h0s-6.5-5.5-6.5-5.5l-1.6-1.4.7,2,7.4,20-9.9-1.4-9.9-18.2-1,.3,1,14.9-5-2.3-.8-9.1h0c0-.1,0-.2,0-.2l-5.7-9.8,23.3-1.6h.9c0,0-.5-.8-.5-.8l-2.8-4.7-.2-.3h-.4s-11.1,1.1-11.1,1.1l-14-1c-.4-4.6-2.1-7.9-4.3-11.8-.1-.2-.2-.5-.4-.7-2.1-3.9-4.6-8.4-6.8-15.4l12.6-17.1,27.2-10.8.5-.2v-.5c-.1,0-1.7-5.5-1.7-5.5l16.6,3.2,22.2,5.7h0ZM502,768.3h0s0,0,0,0l-9.5-9.6,2.5.2,13.8,8.4.3,3.1h0c0,0,0,.2,0,.2l3.6,8.6-2.8-1.2-8-9.7ZM488.3,824.8l-1.2-8.1,8.4-.2,1.6,4.6v.4c.1,0,.5,0,.5,0l25.9.6,3.2,6-3.5,1.8-4.7-1.9-.4-.2-.2.4-2.3,3.9-5.9.2-3.5-.9h-.2s-.2,0-.2,0l-2.4,1.1-2.7-5v-.2c-.1,0-.4,0-.4,0l-6.9-1.1-5.2-1.4Z"/>
      <path id="albania" class="cls-5" d="M429.7,692.3l8.3-2,2.1,29.8v.3s.2.2.2.2l6.1,4.5-.7,1.7-9.9,12.9-4.6-9-.2-6h0c0,0,0-.1,0-.1l-3.1-10.4-1.7-16.5,3.5-5.3Z"/>
      <path id="north-macedonia" class="cls-5" d="M445.7,716.7l-1.5-17.4,10.9,1h0s0,0,0,0l14.8-.4.2,4.8-.3,4.1h0c0,.1,0,.2,0,.2l1.8,6-19.3,8-6.8-6.2Z"/>
      <path id="serbia" class="cls-5" d="M456.9,679.6v-.4c0,0-.5,0-.5,0l-18.9-1.4-7.7-4.6-5.2-23.1h0s-3.5-15.1-3.5-15.1l-.6-9.5,10.5-2.4,7-.9,29.6,31.2,1.8,40.6-10.1.6-2.5-14.8Z"/>
      <path id="montenegro" class="cls-5" d="M430.1,686.1h0s0,0,0,0l-3.5,1.2h-.2c0,0-.1.2-.1.2l-4.3,5.8-8.3-4.9,9.4-12.6,12.8,7.7.2,1.2-6,1.4Z"/>
      <path id="bosnia-and-herzegovina" class="cls-5" d="M419.4,670.9h0s0,0,0,0l-11.3,14.6-6.9-3.2-19.2-33.4,1.3-5.7h33.2l5.8,25-2.8,2.5Z"/>
      <path id="croatia" class="cls-5" d="M400.5,627.6l.2.2h.2s13.6-1.5,13.6-1.5l.2,6.4h0s0,0,0,0l.7,4.7-35.2-.9h-.2s-.1,0-.1,0l-2.5,1.5h-.2c0,.1,0,.4,0,.4l-2.1,11.2v.2s0,.2,0,.2l16.7,28-4.7-4.7h0c0,0,0,0,0,0l-11.9-6.1-15.5-24.9,26.3-27.9,14.7,13.1Z"/>
      <path id="hungary" class="cls-5" d="M403.1,621.7l-23.7-21.1,6.2-12.6,79.2-6.1.3,6.2-17.6,24.9-44.3,8.8Z"/>
      <path id="slovenia" class="cls-5" d="M375.7,609.3h.2c0,0,0-.3,0-.3l.9-2.7,4.5,4.2-25.8,27.2-6.6-1.6-5.7-2.2.5-18.4,27.7-4.5h0s0,0,0,0l4.1-1.7Z"/>
      <path id="italy" class="cls-5" d="M334,675.3l19.6,9.1,11.1,20.5.2.3h.3s13.1.1,13.1.1l-.8,5.8v.4s.3.2.3.2l28.2,15.9,3.1,3.8-2.5,6.7-16.6-12.7-.5-.4-.3.6-6,11.2-.2.3.2.3,8,11.1-4.7,12.7-10.4,13.4-4.8-6.4,7.1-12.2v-.2c.1,0,0-.2,0-.2l-3.5-14.6v-.2c0,0-.2-.1-.2-.1l-66.5-42.2-31.2-42.4-.3-.4-.4.3-17.9,11.7-11.6-9.5v-8.8l2.8-19.4,41.8-5.5h.5v-.4l13.5-15.5,32.1,7-.4,17.7-8,.4h-.6s0,.6,0,.6l5.4,40.9v.3s.3.1.3.1ZM369.6,774l-2.7,4.9-4.1,5.3-.2.2v.2s2.4,13.1,2.4,13.1l-10.1.7-28.7-19.5,2.6-7.2,39.3-4.3,1.5,6.5ZM262,733.7l1.1-10.5,10.7-7.4h13.9l.4,31.2-6.6,3.4-.3.2v.4s.4,7.4.4,7.4l-13.8,2.2,2.4-26.3v-.6c0,0-.6,0-.6,0h-7.5Z"/>
      <path id="turkey" class="cls-5" d="M532.6,712.1l.3.2.3-.2,4.1-3.5,14.8-2.9c7.3,6.4,11.7,8.8,17.1,9.9,2.7.5,5.6.7,9.1.9.4,0,.7,0,1.1,0,2.9.2,6.2.3,10.2.7l-10.2,5.3-23.8-4.5h-.2s-.2,0-.2,0l-13.4,8.4-14.9-1.3,1.9-14.7,3.7,1.7ZM731.3,723h0s0,0,0,0h.4l.2-.3,6.4-12.1,44.5,32.9,1.6,37.4-101.8,15c-3.9-.2-11.3.4-20.3,1.2-6.7.6-14.4,1.4-22.2,2.2-2.8.3-5.5.6-8.3.9-10.7,1.1-21.4,2.1-30.3,2.7-8.9.6-15.9.8-19.4.3l-41.6-16.5-2.4-39.7v-.6s-.6,0-.6,0l-10.5,1.1,5.2-13.2,52.8-7.2h.1s0,0,0,0l37.7-21.9,25.8-2.3,38.9,18.1h0s.1,0,.1,0l43.7,2Z"/>
      <path id="spain" class="cls-5" d="M60.4,699v-.6c0,0-.5,0-.5,0l-45.9-4.8,1.4-16.8,108.7.9,25.5,14h0s0,0,0,0l7.7,1.9v7.7c.1,0,.1.5.1.5h.5c0,0,17.9,2.2,17.9,2.2h.5c0,0,.1-.4.1-.4l1.2-4.6,20.7,5.3-.8,10.7-43.4,12h-.2c0,0-.1.2-.1.2l-53.3,73.2-59.2-4.3,1.5-46.5,10.3-5.6h.2c0-.1,0-.4,0-.4l6.8-44.5Z"/>
      <path id="portugal" class="cls-5" d="M36.8,745l-.2.2v.3s-2.1,49.4-2.1,49.4l-27.8-1.7,5.8-92.5,40,3.4-4.9,34.1-10.7,6.8Z"/>
      <path id="kosovo" class="cls-5" d="M453.3,694.2l-9.2-.8-1.1-9.7,8.7.6,1.6,9.9Z"/>
      <path id="angorra" class="cls-5" d="M171.1,697.5l-7.1-1-.5-5.9,8.3,1-.7,5.9Z"/>
      <path id="switzerland" class="cls-5" d="M240.8,613.4h0s0,0,0,0l10-18.8,30.7.7,11.2,18.2-4.1,4.7-41.7,5.5-7.7-7.8,1.5-2.4Z"/>
      <path id="austria" class="cls-5" d="M327.4,593.9h.2s.2-.2.2-.2l21.9-25.2,20,1.1,15.6,5.2-14.6,29.8-30,5.7-37.3-8.9h-.3c0,0-.2.2-.2.2l-6.2,7-8-13.3,38.7-1.3Z"/>
      <path id="germany" class="cls-5" d="M276.3,432.7l18.2-5.1v7.8h.4c0,.1,58.7,19.4,58.7,19.4l8.7,57.5-44.9,22.5-.7.3.5.5,27.2,28.7-19.9,23.2-36.9,2.1-34-.9,13.4-24.3.3-.5-.4-.3-29-18.5-5.8-27.8-1.6-14.7,17.8-7.9h.3c0-.1,0-.5,0-.5l2.2-37.4,10.5-3.6,14.2,2.1h.6c0,0,0-.5,0-.5v-22.2Z"/>
      <path id="denmark" class="cls-5" d="M276.8,425.4l.4-2.6v-.6c0,0-.5,0-.5,0l-21.4-1.9,11.9-49.8,23.9-19.6,1.1,34.6v.2s.1.1.1.1c2.1,2.8,3.9,5,5.3,6.7.2.2.4.4.6.6.8.9,1.4,1.6,1.8,2.3.5.7.8,1.2.9,1.6.1.4,0,.7,0,1-.2.3-.5.7-1.1,1.1-1.2.8-3.4,1.8-6.7,3.1h-.4c0,.1,0,.5,0,.5l.6,18.1-16.5,4.6ZM317.9,410.2l-10.8-22.9,15.3-10.3-4.4,33.3Z"/>
      <path id="czech-republic" class="cls-5" d="M370.6,563h0s0,0,0,0l-19.5-1-23.2-25.6,37.6-18.4,37.3,17.7,4.6,19.6-17.7,13.9-18.9-6.2Z"/>
      <path id="slovakia" class="cls-5" d="M413.6,558.2l.3-.2v-.3c0,0-1-4.4-1-4.4l46-1.7,6.7,5.4,2,5.1-2.6,5.2h0c0,.1,0,.2,0,.2l-.2,8.4-75.9,5.8,3.6-7.8,21.1-15.6Z"/>
      <path id="poland" class="cls-5" d="M421.5,436.9l.3.3.3-.2,2.8-2,2.9,7v.3c.1,0,.4,0,.4,0l55.7,8.3-5.3,42h0c0,.1,0,.3,0,.3l11.7,30.1-22.3,28.2-6.9-5.9h-.2c0-.1-.2-.1-.2-.1l-49.7,1.9-2.9-15.5v-.3c0,0-.3-.1-.3-.1l-38.6-18.2-9.9-61.1,44.1-28.9,17.9,14.1Z"/>
      <path id="france" class="cls-5" d="M253.1,671.4l-18,9.3-24-6.9h-.2c0,0-.2,0-.2,0l-8.3,5.2h-.2c0,.1,0,.4,0,.4l-2.8,18.5-21.6-5.5.8-5.6v-.6c0,0-.5,0-.5,0l-19.6-1.8h-.6c0,0,0,.5,0,.5l-.2,2.1-5-1-25.1-13.4-1.5-67v-.4s-.4-.1-.4-.1l-45.4-15.8-.6-21.2,88.3-36.5h0s0,0,0,0l16.8-13.3,74.3,48-27.3,50.1-.2.4.3.3,6.5,6,4.6,5.6-3.8,31v.3s.2.2.2.2l13.5,11.3ZM275.8,685.4h.5s.8-5.5.8-5.5h5.4c0-.1,0-.1,0-.1h0s1.3-.2,1.3-.2l.5,29.4-4.7,1.1-10.2-2,.8-20.5,5.8-1.8v-.4Z"/>
      <path id="the-netherlands" class="cls-5" d="M217.2,495.5h.2c0-.1,0-.4,0-.4l3.1-27.3,23.9-8.5-2.4,31.5-17.5,7.6h-.3v7.3l-10.4-8.3,3.3-1.9Z"/>
      <path id="belgium" class="cls-5" d="M219.3,533.3l-28.7-19.2,17.7-12.9,16.9,13.6,2.4,11.5-8.3,7Z"/>
      <path id="luxembourg" class="cls-5" d="M224.4,536.7l5-4.2,1.4,8.3-6.4-4.1Z"/>
      <path id="the-united-kingdom" class="cls-5" d="M88.9,324.5l11.3,7-9.7,9.4h-.1c0,.1,0,.2,0,.2l-3.3,11.1-.3.9.9-.2,14.6-3.6,11.2-1.5,7.6,4.4-14.9,42.8-.2.5.5.2,15.9,5.5,3.6,17.1h0c0,0,0,.2,0,.2l26.8,49.6.2.3h.4c0,0,15.7-2.4,15.7-2.4l3.9,25-9.5,8.1-.2.2v.3s2,14.9,2,14.9l-27.4,2.3h0s0,0,0,0l-64.5,23.7-6-8.7,38.1-26.7-.4-1-18,3.9-11.1-11.2,13.3-9.9.2-.2v-.3s-1.6-22.5-1.6-22.5l17.3-2.7h.6c0,0-.1-.7-.1-.7l-5.3-26.6v-.7c-.1,0-.8.2-.8.2l-10.6,4.2-9.6-10.6,6.4-13.5.2-.3-.2-.3-26.6-31.1,6.8-43.7,23-13.9ZM36.2,437l-4.4-19.3,9.3-8.5,4.5,5.8v.2c.1,0,.4,0,.4,0l15.9,1.5,9.4,20-10,8.3-25-8.1Z"/>
      <path id="ireland" class="cls-5" d="M30.7,441.8v.3c0,0,.4,0,.4,0l28.4,9,.4,33.4-46.4,22.7-12.5-11.1,2.7-16.3h16v-.6c0,0-1.7-13.9-1.7-13.9v-.5c0,0-.5,0-.5,0l-14.4-1.1,4.3-26.2,16.8,3.4.9.2-.2-.9-4.7-18.1,5.4-1.7,5.1,21.2Z"/>
      <circle id="poland-circle" class="cls-3" cx="428.6" cy="487.4" r="8.9"/>
      <circle id="germany-circle" class="cls-3" cx="282.5" cy="505.2" r="8.9" transform="translate(-261.4 703.1) rotate(-80.8)"/>
      <circle id="czech-republic-circle" class="cls-3" cx="368.3" cy="541.5" r="8.9"/>
      <circle id="ukraine-circle" class="cls-3" cx="622.8" cy="554.1" r="8.9"/>
      <circle id="russia-circle" class="cls-3" cx="719.8" cy="441.1" r="8.9"/>
      <circle id="estonia-latvia-circle" class="cls-3" cx="522" cy="351.8" r="8.9"/>
      <circle id="lithuania-circle" class="cls-3" cx="491.3" cy="415.2" r="8.9"/>
      <circle id="finland-circle" class="cls-3" cx="514" cy="224.9" r="8.9"/>
      <circle id="sweden-circle" class="cls-3" cx="377.1" cy="276" r="8.9"/>
      <circle id="norway-circle" class="cls-3" cx="270.7" cy="267.1" r="8.9"/>
      <circle id="denmark-circle" class="cls-3" cx="277.3" cy="397.4" r="8.9"/>
      <circle id="the-united-kingdom-circle" class="cls-3" cx="126.2" cy="482.6" r="8.9"/>
      <circle id="france-circle" class="cls-3" cx="175.3" cy="607.7" r="8.9"/>
      <circle id="belgium-circle" class="cls-3" cx="211.4" cy="516" r="8.9"/>
      <circle id="the-netherlands-circle" class="cls-3" cx="230.8" cy="479.6" r="8.9"/>
      <circle id="italy-circle" class="cls-3" cx="308.7" cy="663.2" r="8.9"/>
      <circle id="austria-circle" class="cls-3" cx="355.6" cy="589.9" r="8.9"/>
      <circle id="croatia-circle" class="cls-3" cx="386" cy="627.9" r="8.9"/>
      <circle id="serbia-circle" class="cls-3" cx="445.2" cy="659.1" r="8.9"/>
      <circle id="bulgaria-circle" class="cls-3" cx="505.1" cy="689" r="8.9"/>
      <circle id="romania-circle" class="cls-3" cx="505.1" cy="627.9" r="8.9"/>
      <circle id="hungary-circle" class="cls-3" cx="419.7" cy="601.8" r="8.9"/>
      <circle id="greece-circle" class="cls-3" cx="460.5" cy="755.4" r="8.9"/>
      <circle id="turkey-circle" class="cls-3" cx="645.1" cy="764.3" r="8.9"/>
      <circle id="spain-circle" class="cls-3" cx="95.7" cy="737.7" r="8.9"/>
      <circle id="portugal-circle" class="cls-3" cx="26.4" cy="724.4" r="8.9"/>
      <circle fill="white" stroke="#666666" cx="339" cy="780" r="15.5"/>
      <rect fill="#DEDEDE" stroke="#666666" x="335.1" y="786.4" width="5.7" height="5.7" transform="translate(-459.1 470.1) rotate(-45)"/>
      <circle fill="white" stroke="#666666" cx="387" cy="780" r="15.5"/>
      <rect fill="#DEDEDE" stroke="#666666" x="385.1" y="776.4" width="5.7" height="5.7" transform="translate(-437.4 502.6) rotate(-45)"/>
      <circle fill="white" stroke="#666666" cx="435" cy="780" r="15.5"/>
      <rect fill="#DEDEDE" stroke="#666666" x="436.9" y="776.7" width="5.7" height="5.7" transform="translate(-422.4 539.3) rotate(-45)"/>
      <circle fill="white" stroke="#666666" cx="483" cy="780" r="15.5"/>
      <rect fill="#DEDEDE" stroke="#666666" x="489.4" y="785.4" width="5.7" height="5.7" transform="translate(-413.2 579) rotate(-45)"/>
    </g>
  </g>
</svg>